<?xml version="1.0" encoding="UTF-8"?>
<svg id="Layer_1_Image" data-name="Layer 1 Image" xmlns="http://www.w3.org/2000/svg" viewBox="0 0 283.44 78.24">
  <defs>
    <style>
      .cls-1 {
        fill: #010101;
      }
    </style>
  </defs>
  <path class="cls-1" d="M66.63,14.6h10.22l-13.55,48.13h-9.6l-5.81-28.15-1.7-9.31-1.7,9.31-5.81,28.15h-9.34L15.69,14.6h10.68l6.37,27.56,1.37,7.68,1.4-7.51,5.42-27.72h10.61l5.72,27.56,1.47,7.68,1.47-7.38,6.43-27.86h0Z"/>
  <path class="cls-1" d="M89.07,14.3v8.59h-9.44v-8.59h9.44ZM89.07,27.13v35.6h-9.44V27.13h9.44Z"/>
  <path class="cls-1" d="M96.53,14.6h9.31v48.13h-9.31V14.6Z"/>
  <path class="cls-1" d="M113.31,14.6h9.31v48.13h-9.31V14.6Z"/>
  <path class="cls-1" d="M138.19,14.3v8.59h-9.44v-8.59h9.44ZM138.19,27.13v35.6h-9.44V27.13h9.44Z"/>
  <path class="cls-1" d="M146,30.99c2.46-3.13,6.68-4.7,12.67-4.7,3.9,0,7.36.77,10.38,2.32,3.03,1.55,4.54,4.46,4.54,8.75v16.33c0,1.13.02,2.51.06,4.12.06,1.22.25,2.05.56,2.48s.76.79,1.37,1.08v1.37h-10.12c-.28-.72-.48-1.39-.59-2.02s-.2-1.35-.26-2.16c-1.28,1.39-2.77,2.58-4.44,3.56-2,1.15-4.27,1.73-6.79,1.73-3.22,0-5.88-.92-7.99-2.76-2.1-1.84-3.15-4.45-3.15-7.82,0-4.38,1.69-7.54,5.06-9.5,1.85-1.07,4.57-1.83,8.16-2.28l3.17-.39c1.72-.22,2.95-.49,3.69-.82,1.33-.57,1.99-1.45,1.99-2.65,0-1.46-.51-2.47-1.52-3.02-1.01-.56-2.5-.83-4.46-.83-2.2,0-3.76.55-4.67,1.63-.65.81-1.09,1.9-1.31,3.27h-8.98c.2-3.11,1.07-5.67,2.61-7.68h0ZM152.92,56c.87.72,1.94,1.08,3.2,1.08,2,0,3.85-.59,5.53-1.76s2.56-3.32,2.63-6.43v-3.46c-.59.37-1.18.67-1.78.9s-1.42.44-2.47.64l-2.09.39c-1.96.35-3.36.77-4.21,1.27-1.44.85-2.16,2.16-2.16,3.95,0,1.59.44,2.73,1.34,3.43h0Z"/>
  <path class="cls-1" d="M199.36,36.93c-.79-1.72-2.32-2.58-4.61-2.58-2.66,0-4.44.86-5.35,2.58-.5.98-.75,2.44-.75,4.38v21.42h-9.44V27.2h9.05v5.19c1.15-1.85,2.24-3.17,3.27-3.95,1.81-1.39,4.15-2.09,7.02-2.09,2.72,0,4.92.6,6.6,1.8,1.35,1.11,2.37,2.54,3.07,4.28,1.22-2.09,2.73-3.62,4.54-4.61,1.92-.98,4.05-1.47,6.4-1.47,1.57,0,3.11.3,4.64.91,1.52.61,2.91,1.68,4.15,3.2,1,1.24,1.68,2.77,2.02,4.57.22,1.2.33,2.95.33,5.26l-.06,22.43h-9.53v-22.66c0-1.35-.22-2.46-.65-3.33-.83-1.65-2.35-2.48-4.57-2.48-2.57,0-4.34,1.07-5.32,3.2-.5,1.13-.75,2.49-.75,4.08v21.19h-9.37v-21.19c0-2.11-.22-3.65-.65-4.61h0Z"/>
  <path class="cls-1" d="M261.97,28.77c2.79,1.78,4.39,4.85,4.8,9.21h-9.31c-.13-1.2-.47-2.14-1.01-2.84-1.02-1.26-2.77-1.9-5.23-1.9-2.02,0-3.47.32-4.33.95s-1.29,1.37-1.29,2.22c0,1.07.46,1.84,1.37,2.32.91.5,4.15,1.36,9.7,2.58,3.7.87,6.48,2.19,8.33,3.95,1.83,1.78,2.74,4.02,2.74,6.69,0,3.53-1.31,6.41-3.93,8.64-2.62,2.23-6.68,3.35-12.16,3.35s-9.73-1.18-12.39-3.54c-2.67-2.36-4-5.37-4-9.03h9.44c.2,1.66.62,2.83,1.27,3.53,1.15,1.24,3.29,1.86,6.4,1.86,1.83,0,3.28-.27,4.36-.82,1.08-.54,1.62-1.36,1.62-2.45s-.44-1.84-1.31-2.38c-.87-.54-4.1-1.48-9.7-2.81-4.03-1-6.87-2.25-8.52-3.76-1.66-1.48-2.48-3.61-2.48-6.4,0-3.29,1.29-6.11,3.87-8.47,2.58-2.36,6.21-3.54,10.89-3.54s8.06.88,10.87,2.65h0Z"/>
</svg>